<svg xmlns="http://www.w3.org/2000/svg" width="5" height="5" viewBox="0 0 5 5">
  <g fill="#37A5BB" fill-rule="evenodd">
    <path d="M4.99896808,2.59430647 C4.9122872,2.76046868 4.76781907,2.86530912 4.6006488,2.94937929 C3.77718044,3.36379576 2.954744,3.78117942 2.13024372,4.19559589 C1.9527543,4.28461136 1.78248829,4.25988484 1.64524356,4.13328506 C1.57507333,4.06899611 1.53792438,3.99382749 1.53895629,3.89788859 C1.54514779,3.48050494 1.5461797,3.06213222 1.55133928,2.64474857 C1.55340311,2.45583795 1.6545308,2.35297563 1.83202022,2.35297563 C2.01054156,2.35297563 2.10754159,2.45385983 2.10754159,2.64672669 C2.10754159,2.90487156 2.10650967,3.16202736 2.10031818,3.41918317 C2.09825435,3.51116582 2.10960542,3.54083765 2.21073311,3.49039555 C2.68438221,3.25598814 3.15906322,3.02652603 3.63580806,2.79805299 C3.76376555,2.73673122 3.90101027,2.67145321 3.90513793,2.52111597 C3.90926559,2.37770215 3.77718044,2.3084679 3.65747828,2.24318988 C2.85052056,1.79811253 2.04562668,1.35204611 1.23866896,0.906968749 C1.17881788,0.873340682 1.11793488,0.839712615 1.05498805,0.813997034 C0.854796491,0.735861232 0.691753884,0.834767311 0.67317941,1.04247008 C0.670083664,1.07807627 0.671115579,1.11368246 0.671115579,1.14928864 C0.662860257,2.02856369 0.655636851,2.90783874 0.649445359,3.78810285 C0.648413444,3.85338086 0.644285783,3.91964793 0.666987918,3.98492594 C0.71858368,4.13328506 0.823839034,4.18768341 0.97862632,4.14317567 C1.031254,4.12833976 1.08388167,4.10855854 1.13857318,4.10064606 C1.34598814,4.07394142 1.49458394,4.25197236 1.42544562,4.44088297 C1.39964774,4.51011723 1.36043496,4.57539524 1.29748813,4.61100143 C1.03434974,4.75738242 0.784626255,4.93145712 0.477115515,4.98981171 C0.246998417,5.03333039 0.0911792158,4.93640243 0.0292643015,4.71880905 C-0.00169315558,4.61001237 -0.000661240342,4.49923756 0.000370674896,4.38846275 C0.00965791203,3.12246493 0.0199770644,1.85646711 0.031328132,0.590469295 C0.031328132,0.529147525 0.031328132,0.465847635 0.0416472844,0.404525865 C0.0726047415,0.210669949 0.184051587,0.0741795596 0.374955906,0 C0.467828277,0.000989060795 0.560700649,0.000989060795 0.65357302,0.00197812159 C0.735094324,0.0405514926 0.817647543,0.077146742 0.897105016,0.119676356 C2.1354033,0.773445542 3.37370159,1.42820379 4.61303179,2.08296203 C4.78123397,2.17197751 4.92363827,2.2857195 5,2.46078326 C5,2.50529099 4.99896808,2.54979873 4.99896808,2.59430647"/>
    <path d="M2.11705049,1.83105683 C2.11305049,1.98805683 1.98505049,2.11205683 1.82905049,2.10905683 C1.67805049,2.10605683 1.54705049,1.97005683 1.55005049,1.82005683 C1.55205049,1.66305683 1.67805049,1.54705683 1.84005049,1.55005683 C2.00505049,1.55305683 2.12005049,1.67105683 2.11705049,1.83105683 Z"/>
  </g>
</svg>
