<svg xmlns="http://www.w3.org/2000/svg" width="218" height="32" viewBox="0 0 218 32">
  <path fill="#FFF" fill-rule="evenodd" d="M0 0h16.183c1.545 0 2.887.175 4.024.525 1.137.35 2.128.845 2.974 1.486a7.8 7.8 0 0 1 2.187 2.645c.525 1.034.787 2.207.787 3.519 0 1.486-.32 2.71-.962 3.672-.642.962-1.618 1.734-2.93 2.317v.131c1.72.554 3.047 1.501 3.98 2.842.933 1.34 1.4 2.9 1.4 4.677 0 1.69-.321 3.162-.963 4.416a8.359 8.359 0 0 1-2.624 3.06c-.933.67-2.02 1.165-3.259 1.486-1.239.32-2.675.48-4.308.48H0V0zm15.483 24.087c.992 0 1.793-.276 2.406-.83.612-.554.918-1.297.918-2.23 0-1.02-.328-1.777-.984-2.273-.656-.495-1.45-.743-2.384-.743H8.966v6.076h6.517zm-.83-11.934c.874 0 1.581-.204 2.12-.612.54-.408.81-1.035.81-1.88 0-.816-.277-1.45-.831-1.901-.554-.452-1.269-.678-2.144-.678H8.966v5.071h5.686zM40.85 31.869c-1.837 0-3.499-.292-4.986-.874-1.487-.583-2.77-1.4-3.849-2.449a10.786 10.786 0 0 1-2.493-3.737c-.583-1.443-.875-3.024-.875-4.743 0-1.69.292-3.257.875-4.7a11.339 11.339 0 0 1 2.45-3.76c1.049-1.063 2.303-1.894 3.76-2.491 1.459-.598 3.062-.896 4.812-.896 1.75 0 3.302.27 4.658.808a11.56 11.56 0 0 1 3.565 2.208c1.37 1.253 2.376 2.827 3.018 4.721.641 1.895.933 3.95.874 6.164H36.74c.233 1.312.707 2.332 1.421 3.06.715.729 1.699 1.093 2.953 1.093 1.457 0 2.493-.554 3.105-1.661h8.004c-.233 1.02-.722 1.996-1.465 2.929-.744.933-1.67 1.749-2.778 2.448a10.668 10.668 0 0 1-3.258 1.443c-1.152.291-2.442.437-3.87.437zm-.13-18.099c-1.137 0-2.027.358-2.668 1.072-.642.714-1.079 1.683-1.312 2.907h7.698c-.175-1.254-.59-2.23-1.247-2.93-.656-.699-1.48-1.049-2.471-1.049zm21.869-1.748h.131c.904-1.224 1.932-2.157 3.084-2.798 1.151-.641 2.514-.962 4.089-.962 2.595 0 4.549.787 5.86 2.361 1.313 1.574 1.97 3.643 1.97 6.208v14.426h-8.267V18.842c0-1.166-.248-2.099-.744-2.798-.496-.7-1.283-1.05-2.362-1.05-1.05 0-1.873.401-2.471 1.203-.598.801-.897 1.814-.897 3.038v12.022h-8.266V8.962h7.873v3.06zm29.217 19.847c-1.837 0-3.5-.292-4.986-.874-1.488-.583-2.77-1.4-3.85-2.449a10.786 10.786 0 0 1-2.492-3.737c-.584-1.443-.875-3.024-.875-4.743 0-1.69.291-3.257.875-4.7a11.339 11.339 0 0 1 2.449-3.76c1.05-1.063 2.303-1.894 3.761-2.491 1.458-.598 3.062-.896 4.811-.896 1.75 0 3.303.27 4.659.808a11.56 11.56 0 0 1 3.564 2.208c1.37 1.253 2.377 2.827 3.018 4.721.642 1.895.933 3.95.875 6.164h-15.92c.233 1.312.706 2.332 1.42 3.06.715.729 1.7 1.093 2.953 1.093 1.458 0 2.493-.554 3.105-1.661h8.004c-.233 1.02-.721 1.996-1.465 2.929-.743.933-1.67 1.749-2.777 2.448a10.668 10.668 0 0 1-3.259 1.443c-1.151.291-2.442.437-3.87.437zm-.132-18.099c-1.137 0-2.026.358-2.668 1.072-.641.714-1.078 1.683-1.312 2.907h7.698c-.175-1.254-.59-2.23-1.246-2.93-.656-.699-1.48-1.049-2.472-1.049zM115.6 32c-1.662 0-3.178-.175-4.549-.525-1.37-.35-2.551-.86-3.543-1.53-.99-.67-1.764-1.5-2.318-2.491-.554-.991-.83-2.128-.83-3.41h7.916c.058.932.372 1.654.94 2.164.569.51 1.378.765 2.428.765.816 0 1.494-.153 2.034-.46.539-.305.809-.794.809-1.464 0-.466-.153-.838-.46-1.115-.306-.276-.707-.495-1.202-.655a11.296 11.296 0 0 0-1.728-.394c-.656-.102-1.349-.211-2.078-.328a35.024 35.024 0 0 1-2.842-.568 8.177 8.177 0 0 1-2.603-1.115c-.773-.51-1.407-1.202-1.902-2.076-.496-.875-.744-2.011-.744-3.41 0-1.137.27-2.15.81-3.038.539-.89 1.275-1.64 2.208-2.252.933-.612 2.012-1.07 3.236-1.377a16.008 16.008 0 0 1 3.893-.459c3.412 0 6 .605 7.764 1.815 1.764 1.209 2.719 2.907 2.864 5.092h-7.785c-.117-.845-.445-1.391-.984-1.639-.54-.248-1.144-.372-1.815-.372-.612 0-1.16.124-1.64.372-.481.248-.722.663-.722 1.246a1 1 0 0 0 .35.787c.233.204.561.371.984.503.423.13.911.24 1.465.327.554.088 1.152.175 1.794.263 1.02.145 2.077.335 3.17.568a9.518 9.518 0 0 1 2.975 1.159c.889.539 1.625 1.282 2.208 2.229.584.947.875 2.193.875 3.738 0 1.34-.284 2.492-.853 3.453a7.028 7.028 0 0 1-2.34 2.383c-.991.626-2.157 1.085-3.499 1.377-1.341.291-2.77.437-4.286.437zm22.875 0c-1.662 0-3.178-.175-4.549-.525-1.37-.35-2.551-.86-3.543-1.53-.991-.67-1.764-1.5-2.318-2.491-.554-.991-.83-2.128-.83-3.41h7.916c.058.932.372 1.654.94 2.164.569.51 1.378.765 2.428.765.816 0 1.494-.153 2.033-.46.54-.305.81-.794.81-1.464 0-.466-.154-.838-.46-1.115-.306-.276-.707-.495-1.202-.655a11.296 11.296 0 0 0-1.728-.394c-.656-.102-1.349-.211-2.078-.328a35.024 35.024 0 0 1-2.843-.568 8.177 8.177 0 0 1-2.602-1.115c-.773-.51-1.407-1.202-1.903-2.076-.495-.875-.743-2.011-.743-3.41 0-1.137.27-2.15.809-3.038.54-.89 1.276-1.64 2.209-2.252.933-.612 2.012-1.07 3.236-1.377a16.008 16.008 0 0 1 3.893-.459c3.412 0 6 .605 7.763 1.815 1.765 1.209 2.72 2.907 2.865 5.092h-7.785c-.117-.845-.445-1.391-.984-1.639-.54-.248-1.145-.372-1.815-.372-.613 0-1.16.124-1.64.372-.482.248-.722.663-.722 1.246a1 1 0 0 0 .35.787c.233.204.561.371.984.503.423.13.911.24 1.465.327a86.37 86.37 0 0 0 1.793.263 46.9 46.9 0 0 1 3.171.568 9.518 9.518 0 0 1 2.975 1.159c.889.539 1.625 1.282 2.208 2.229.583.947.875 2.193.875 3.738 0 1.34-.284 2.492-.853 3.453a7.028 7.028 0 0 1-2.34 2.383c-.991.626-2.158 1.085-3.499 1.377-1.341.291-2.77.437-4.286.437zm24.23-.131c-1.836 0-3.498-.292-4.986-.874-1.487-.583-2.77-1.4-3.848-2.449a10.786 10.786 0 0 1-2.493-3.737c-.584-1.443-.875-3.024-.875-4.743 0-1.69.291-3.257.875-4.7a11.339 11.339 0 0 1 2.449-3.76c1.05-1.063 2.303-1.894 3.761-2.491 1.458-.598 3.062-.896 4.811-.896 1.75 0 3.303.27 4.659.808a11.56 11.56 0 0 1 3.564 2.208c1.37 1.253 2.377 2.827 3.018 4.721.642 1.895.933 3.95.875 6.164h-15.92c.233 1.312.706 2.332 1.42 3.06.715.729 1.7 1.093 2.953 1.093 1.458 0 2.493-.554 3.105-1.661h8.004c-.233 1.02-.721 1.996-1.465 2.929-.743.933-1.67 1.749-2.777 2.448a10.668 10.668 0 0 1-3.259 1.443c-1.151.291-2.442.437-3.87.437zm-.13-18.099c-1.138 0-2.027.358-2.669 1.072-.641.714-1.078 1.683-1.312 2.907h7.698c-.175-1.254-.59-2.23-1.246-2.93-.656-.699-1.48-1.049-2.472-1.049zm21.868-1.442h.131c.904-1.399 1.903-2.39 2.997-2.973 1.093-.583 2.354-.874 3.783-.874.612 0 1.064.073 1.356.218v7.039h-.175c-2.45-.408-4.345-.08-5.686.983-1.341 1.064-2.012 2.864-2.012 5.4v9.136h-8.267V8.962h7.873v3.366zm21.52 19.54c-1.838 0-3.5-.29-4.987-.873s-2.77-1.4-3.849-2.449a10.786 10.786 0 0 1-2.493-3.737c-.583-1.443-.875-3.024-.875-4.743 0-1.69.292-3.257.875-4.7a11.339 11.339 0 0 1 2.45-3.76c1.05-1.063 2.303-1.894 3.761-2.491 1.458-.598 3.062-.896 4.811-.896 1.75 0 3.302.27 4.658.808a11.56 11.56 0 0 1 3.565 2.208c1.37 1.253 2.376 2.827 3.018 4.721.641 1.895.933 3.95.874 6.164h-15.92c.233 1.312.707 2.332 1.421 3.06.715.729 1.699 1.093 2.953 1.093 1.458 0 2.493-.554 3.105-1.661h8.004c-.233 1.02-.722 1.996-1.465 2.929-.744.933-1.67 1.749-2.777 2.448a10.668 10.668 0 0 1-3.259 1.443c-1.152.291-2.442.437-3.87.437zm-.132-18.098c-1.137 0-2.026.358-2.668 1.072-.641.714-1.079 1.683-1.312 2.907h7.698c-.175-1.254-.59-2.23-1.247-2.93-.656-.699-1.48-1.049-2.47-1.049z"/>
</svg>
