<svg version="1.1" xmlns="http://www.w3.org/2000/svg" xmlns:xlink="http://www.w3.org/1999/xlink" x="0px" y="0px"
	 viewBox="0 0 50 50" style="enable-background:new 0 0 50 50;" xml:space="preserve">
<style type="text/css">
	.st0{fill:#444444;}
</style>
<g>
	<path class="st0" d="M13.6,30.2c-0.9,0-1.7,0.8-1.7,1.7s0.8,1.7,1.7,1.7c0.9,0,1.7-0.8,1.7-1.7S14.6,30.2,13.6,30.2L13.6,30.2z
		 M13.6,32.5c-0.3,0-0.6-0.3-0.6-0.6c0-0.4,0.3-0.6,0.6-0.6c0.4,0,0.6,0.3,0.6,0.6C14.3,32.2,14,32.5,13.6,32.5L13.6,32.5z"/>
	<path class="st0" d="M36.5,30.2c-0.9,0-1.7,0.8-1.7,1.7s0.8,1.7,1.7,1.7s1.7-0.8,1.7-1.7S37.5,30.2,36.5,30.2L36.5,30.2z
		 M36.5,32.5c-0.3,0-0.6-0.3-0.6-0.6c0-0.4,0.3-0.6,0.6-0.6c0.3,0,0.6,0.3,0.6,0.6C37.1,32.2,36.9,32.5,36.5,32.5L36.5,32.5z"/>
	<path class="st0" d="M35,19.9c-0.1-0.2-0.3-0.3-0.5-0.3h-3.8c-0.3,0-0.5,0.3-0.5,0.5v4.4c0,0.3,0.3,0.5,0.5,0.5h5.6
		c0.2,0,0.3-0.1,0.4-0.3c0.1-0.2,0.1-0.3,0.1-0.5L35,19.9L35,19.9z M31.2,24v-3.4h2.9l1.3,3.4H31.2z"/>
	<path class="st0" d="M40.4,24.4l-2-0.5l-2.3-5.6C36,18.1,35.9,18,35.6,18h-1.5l-0.3-2.5c0-0.3-0.3-0.5-0.5-0.5h-1.7
		c-0.3,0-0.5,0.2-0.5,0.5L30.8,18h-1.2v-2.6c0-0.3-0.3-0.5-0.5-0.5H8.7c-0.3,0-0.5,0.2-0.5,0.5V32c0,0.3,0.3,0.5,0.5,0.5h1.7
		c0.3,1.5,1.7,2.6,3.3,2.6s2.9-1.1,3.3-2.6h12.2l0,0h4.2c0.3,1.5,1.7,2.6,3.3,2.6s2.9-1.1,3.3-2.6h1.7c0.3,0,0.5-0.3,0.5-0.5v-5.6
		C42,25.5,41.4,24.7,40.4,24.4L40.4,24.4L40.4,24.4z M32.1,16.1h0.8L33,18h-1.1L32.1,16.1L32.1,16.1z M9.3,30.9h1.2
		c-0.1,0.2-0.1,0.4-0.1,0.6H9.3V30.9z M13.6,34.2c-1.2,0-2.2-1-2.2-2.2s1-2.2,2.2-2.2s2.2,1,2.2,2.2S14.9,34.2,13.6,34.2L13.6,34.2z
		 M28.6,31.5H17c-0.2-1.7-1.6-2.9-3.3-2.9c-1.1,0-2,0.5-2.6,1.3H9.2V27h16.9c0.3,0,0.5-0.3,0.5-0.5S26.4,26,26.1,26H9.2V15.8h19.3
		V31.5L28.6,31.5z M36.5,34.2c-1.2,0-2.2-1-2.2-2.2s1-2.2,2.2-2.2s2.2,1,2.2,2.2S37.8,34.2,36.5,34.2L36.5,34.2z M36.5,28.5
		c-1.7,0-3.1,1.3-3.3,2.9h-3.6V19h5.6l2.2,5.6c0.1,0.1,0.2,0.3,0.4,0.3l2.3,0.6c0.4,0.1,0.8,0.5,0.8,1v3.3h-1.8
		C38.5,29,37.6,28.5,36.5,28.5L36.5,28.5L36.5,28.5z M39.8,31.5c0-0.2-0.1-0.4-0.1-0.6h1.2v0.6H39.8z"/>
	<path class="st0" d="M15.2,23h1.7v1.7c0,0.3,0.3,0.5,0.5,0.5h3c0.3,0,0.5-0.3,0.5-0.5V23h1.7c0.3,0,0.5-0.3,0.5-0.5v-3
		c0-0.3-0.3-0.5-0.5-0.5h-1.7v-1.7c0-0.3-0.3-0.5-0.5-0.5h-2.9c-0.3,0-0.5,0.3-0.5,0.5v1.7h-1.7c-0.3,0-0.5,0.3-0.5,0.5v3
		C14.7,22.8,14.9,23,15.2,23L15.2,23L15.2,23z M15.8,20h1.7c0.3,0,0.5-0.3,0.5-0.5v-1.7h1.9v1.7c0,0.3,0.3,0.5,0.5,0.5H22v1.9h-1.7
		c-0.3,0-0.5,0.3-0.5,0.5V24h-1.9v-1.6c0-0.3-0.3-0.5-0.5-0.5h-1.7V20z"/>
</g>
</svg>
