<?xml version="1.0" encoding="UTF-8"?>
<svg width="32px" height="32px" viewBox="0 0 32 32" version="1.1" xmlns="http://www.w3.org/2000/svg" xmlns:xlink="http://www.w3.org/1999/xlink">
    <title>cross-white</title>
    <defs>
        <path d="M24.9333333,23.0666667 C25.4666667,23.6 25.4666667,24.4 24.9333333,24.9333333 C24.6666667,25.2 24.4,25.3333333 24,25.3333333 C23.6,25.3333333 23.3333333,25.2 23.0666667,24.9333333 L16,17.8666667 L8.93333333,24.9333333 C8.66666667,25.2 8.4,25.3333333 8,25.3333333 C7.6,25.3333333 7.33333333,25.2 7.06666667,24.9333333 C6.53333333,24.4 6.53333333,23.6 7.06666667,23.0666667 L14.1333333,16 L7.06666667,8.93333333 C6.53333333,8.4 6.53333333,7.6 7.06666667,7.06666667 C7.6,6.53333333 8.4,6.53333333 8.93333333,7.06666667 L16,14.1333333 L23.0666667,7.06666667 C23.6,6.53333333 24.4,6.53333333 24.9333333,7.06666667 C25.4666667,7.6 25.4666667,8.4 24.9333333,8.93333333 L17.8666667,16 L24.9333333,23.0666667 Z" id="path-1"></path>
    </defs>
    <g id="Icons" stroke="none" stroke-width="1" fill="none" fill-rule="evenodd">
        <g id="white" transform="translate(-896.000000, 0.000000)">
            <g id="icon-/-cross" transform="translate(896.000000, 0.000000)">
                <mask id="mask-2" fill="white">
                    <use xlink:href="#path-1"></use>
                </mask>
                <use id="Mask" fill="#000000" fill-rule="nonzero" xlink:href="#path-1"></use>
                <g id="color-/-white" mask="url(#mask-2)" fill="#FFFFFF" fill-rule="evenodd">
                    <rect id="Shape" x="0" y="0" width="32" height="32"></rect>
                </g>
            </g>
        </g>
    </g>
</svg>