<svg version="1.1" xmlns="http://www.w3.org/2000/svg" xmlns:xlink="http://www.w3.org/1999/xlink" x="0px" y="0px"
	 viewBox="0 0 50 50" style="enable-background:new 0 0 50 50;" xml:space="preserve">
<style type="text/css">
	.st0{fill:#444444;}
</style>
<g>
</g>
<g>
	<path class="st0" d="M20.6,12.1c0,0-0.1,0.1-0.1,0.2L8.8,32.6c-1,1.6-1,3.6,0,5.2s2.6,2.6,4.5,2.6h23.6c1.8,0,3.6-1,4.4-2.6
		c0.9-1.6,1-3.6,0-5.2L29.6,12.2c-1-1.6-2.6-2.6-4.5-2.6C23.2,9.6,21.6,10.6,20.6,12.1L20.6,12.1z M22,12.9c0.7-1.2,1.8-1.8,3.2-1.8
		s2.5,0.7,3.2,1.8l11.8,20.4c0.7,1.2,0.7,2.5,0,3.7c-0.7,1.2-1.8,1.8-3.2,1.8H13.3c-1.3,0-2.5-0.7-3.2-1.8s-0.7-2.5,0-3.7L22,12.9
		C21.9,13,22,13,22,12.9z"/>
	<path class="st0" d="M22.6,28L22.6,28L22.6,28L22.6,28L22.6,28L22.6,28L22.6,28c0.2,1.3,1.3,2.1,2.4,2.1l0,0c1.3,0,2.2-0.9,2.4-2.1
		l1.1-8c0.1-1-0.2-2-0.9-2.8c-0.7-0.8-1.6-1.3-2.7-1.3h-0.1c-1.1,0-2,0.5-2.7,1.3s-1,1.8-0.9,2.8L22.6,28z M24.1,27.8
		C24.2,27.8,24.2,27.8,24.1,27.8l-1.1-8c-0.1-0.6,0.1-1.2,0.5-1.5c0.4-0.4,1-0.7,1.5-0.7h0.1c0.6,0,1.2,0.3,1.5,0.7
		c0.4,0.4,0.6,1.1,0.5,1.6l-1.1,8c-0.1,0.5-0.5,0.8-0.9,0.8l0,0C24.6,28.7,24.2,28.3,24.1,27.8L24.1,27.8L24.1,27.8
		C24.2,27.8,24.2,27.8,24.1,27.8L24.1,27.8C24.2,27.8,24.1,27.8,24.1,27.8z"/>
	<path class="st0" d="M25.1,30.8c-1.3,0-2.5,1.2-2.5,2.5c0,1.3,1.2,2.5,2.5,2.5s2.5-1.2,2.5-2.5C27.6,31.9,26.5,30.8,25.1,30.8
		L25.1,30.8z M25.1,34.2c-0.6,0-1-0.5-1-1s0.5-1,1-1c0.6,0,1,0.5,1,1S25.6,34.2,25.1,34.2L25.1,34.2z"/>
</g>
</svg>
