<svg version="1.1" xmlns="http://www.w3.org/2000/svg" xmlns:xlink="http://www.w3.org/1999/xlink" x="0px" y="0px"
	 viewBox="0 0 50 50" style="enable-background:new 0 0 50 50;" xml:space="preserve">
<style type="text/css">
	.st0{fill:#444444;}
</style>
<g>
	<path class="st0" d="M8.1,12.1v25.8h33.6V12.1H8.1z M40.6,36.9H9.1V13.1h31.5V36.9L40.6,36.9z"/>
	<path class="st0" d="M10.6,14.6v20.9h28.7V14.6C39.2,14.6,10.6,14.6,10.6,14.6z M38.1,34.4H11.6v-6.6l11.8-4.7l14.7,6.8V34.4z
		 M38.1,28.8l-6.8-3.2l3.4-2.1l3.4,2.1V28.8L38.1,28.8z M38.1,19.2v5.3l-3.3-2.2l-4.6,2.8L23.5,22l-11.8,4.8V15.6h26.6v2.5
		L38.1,19.2L38.1,19.2z"/>
	<path class="st0" d="M16.4,17c-1.6,0-3,1.4-3,3c0,1.6,1.4,3,3,3c1.6,0,3-1.4,3-3C19.4,18.4,18,17,16.4,17L16.4,17z M16.4,22
		c-1.1,0-1.9-0.9-1.9-1.9s0.9-1.9,1.9-1.9s1.9,0.9,1.9,1.9S17.5,22,16.4,22L16.4,22z"/>
</g>
</svg>
