<svg version="1.1" xmlns="http://www.w3.org/2000/svg" xmlns:xlink="http://www.w3.org/1999/xlink" x="0px" y="0px"
	 viewBox="0 0 50 50" style="enable-background:new 0 0 50 50;" xml:space="preserve">
<style type="text/css">
	.st0{fill:#444444;}
</style>
<path class="st0" d="M33.4,11.9h-2.6c0-1.5-0.7-2.6-2-3.4c-0.7-0.3-1.7-0.4-1.8-0.4h-3.2c-0.1,0-1.1,0.1-1.9,0.5
	c-1.2,0.6-1.9,1.8-1.9,3.3h-2.5c-0.1,0-1.7,0.1-3.4,0.9c-1.5,0.7-3.4,2.4-3.4,5.7c0,0.5,0.4,0.9,0.9,0.9h0.8L16.3,41
	c0.1,0.5,0.5,0.8,0.9,0.8h16.5c0.4,0,0.8-0.3,0.9-0.8l3.7-21.5h0.8c0.5,0,0.9-0.4,0.9-0.9c0-3.3-1.9-4.9-3.4-5.7
	C35.1,12.1,33.6,11.9,33.4,11.9L33.4,11.9z M33.6,40.5h-16L14,19.5h22.9l-3.4,20.4C33.6,39.9,33.6,40.5,33.6,40.5z M22.9,9.8
	C23.4,9.6,24,9.5,24,9.5H27c0.1,0,0.6,0.1,1.1,0.3c0.6,0.3,0.8,1.4,0.8,2.1l0,0H22l0,0C22,11.2,22.3,10.2,22.9,9.8z M14.4,14.2
	c0.7-0.3,1.4-0.7,2.7-0.8h16.6c0.7,0,1.3,0.1,2.5,0.7c1.4,0.7,2.2,2.7,2.5,4.1H12.2C12.4,16.8,13,14.9,14.4,14.2z"/>
<path class="st0" d="M25.7,35.2V22.5c0-0.5-0.3-0.9-0.7-0.9s-0.7,0.4-0.7,0.9v12.8c0,0.5,0.3,0.9,0.7,0.9S25.7,35.7,25.7,35.2z"/>
<path class="st0" d="M19.5,35.3c0,0.5,0.3,0.8,0.7,0.8c0,0,0,0,0.1,0c0.4,0,0.7-0.5,0.6-1L20,22.4c0-0.5-0.4-0.9-0.8-0.8
	c-0.4,0.1-0.7,0.5-0.6,1L19.5,35.3L19.5,35.3z"/>
<path class="st0" d="M30,36.2c0.4,0,0.7-0.4,0.7-0.8l0.9-12.8c0-0.5-0.3-0.9-0.6-1c-0.3-0.1-0.7,0.3-0.8,0.8l-0.9,12.8
	C29.2,35.7,29.5,36.1,30,36.2C29.8,36.1,29.8,36.2,30,36.2L30,36.2z"/>
</svg>
