<svg version="1.1" xmlns="http://www.w3.org/2000/svg" xmlns:xlink="http://www.w3.org/1999/xlink" x="0px" y="0px"
	 viewBox="0 0 50 50" style="enable-background:new 0 0 50 50;" xml:space="preserve">
<style type="text/css">
	.st0{fill:#444444;}
</style>
<g>
</g>
<g>
	<path class="st0" d="M15.4,36.4c0.3,0.1,0.6-0.1,0.7-0.3l1-3.4L29.6,27c0.3-0.1,0.4-0.4,0.3-0.7s-0.4-0.4-0.7-0.3l-11.5,5.2
		l2.1-6.4l8.4-3.8c0.3-0.1,0.4-0.4,0.3-0.7c-0.1-0.3-0.4-0.4-0.7-0.3l-7.4,3.3l2.1-6.4l4.3-2c0.3-0.1,0.4-0.4,0.3-0.7
		c-0.1-0.3-0.4-0.4-0.7-0.3l-3.4,1.6l1.7-5.2c0-0.1,0.2-0.7,1.2-0.7c0.8,0,1.2,0.6,1.2,0.7l7.6,27.2h-12l8.8-4
		c0.3-0.1,0.4-0.4,0.3-0.7c-0.1-0.3-0.4-0.4-0.7-0.3l-11.2,5c-0.2,0.1-0.3,0.3-0.3,0.6c0.1,0.2,0.3,0.4,0.5,0.4H35
		c0.2,0,0.3-0.1,0.4-0.2c0.1-0.1,0.1-0.3,0.1-0.5l-7.7-28c0,0-0.5-1.5-2.2-1.5c-1.4,0-2.1,1-2.2,1.5l-4.6,14.3l0,0l-3.7,11.4
		C15,35.9,15.2,36.2,15.4,36.4L15.4,36.4L15.4,36.4z"/>
	<path class="st0" d="M38.3,37.4h-1.2c-0.3,0-0.5,0.2-0.5,0.5c0,0.3,0.2,0.5,0.5,0.5h1.2c0.3,0,0.5,0.2,0.5,0.5v1.7H12.2V39
		c0-0.3,0.2-0.5,0.5-0.5h5c0.3,0,0.5-0.2,0.5-0.5c0-0.3-0.2-0.5-0.5-0.5h-5c-0.9,0-1.7,0.7-1.7,1.7v2.2c0,0.4,0.2,0.6,0.5,0.6h28
		c0.3,0,0.5-0.2,0.5-0.5v-2.2C40,38.1,39.3,37.4,38.3,37.4L38.3,37.4L38.3,37.4z"/>
</g>
</svg>
